<svg version="1.1" id="Layer_1" xmlns="http://www.w3.org/2000/svg" xmlns:xlink="http://www.w3.org/1999/xlink" x="0px" y="0px"
	 width="100%" viewBox="0 0 500 500" enable-background="new 0 0 500 500" xml:space="preserve">
<path fill="#101312" opacity="1.000000" stroke="none" 
	d="
M478.758606,1.269377 
	C484.975830,1.000000 490.962555,1.215875 496.923096,0.913845 
	C500.166016,0.749519 501.137512,1.299695 501.110901,4.896023 
	C500.908447,32.283688 501.000000,59.673523 501.000000,87.531342 
	C490.308807,102.239799 480.982666,117.457115 470.217804,131.619125 
	C462.359314,141.957520 455.212799,152.785370 447.654663,163.315018 
	C440.394806,173.429153 433.182251,183.629044 426.309174,194.038223 
	C416.682343,208.618011 406.191254,222.594604 396.206757,236.925552 
	C386.316833,251.120682 376.269257,265.222748 366.419800,279.444855 
	C357.333649,292.564697 348.066284,305.565643 338.949951,318.661102 
	C324.979614,338.729340 311.017273,358.813049 296.776276,378.698273 
	C277.209656,406.019806 258.430359,433.896454 238.797775,461.177338 
	C231.033081,471.966980 223.434097,482.890045 215.824081,493.797485 
	C214.363281,495.891266 213.778030,498.336121 212.238846,500.730103 
	C186.312439,501.000000 160.624878,501.000000 134.468658,501.000000 
	C132.649109,499.236938 133.821121,497.778595 134.754974,496.499634 
	C141.316086,487.513702 147.628082,478.330475 153.774902,469.084534 
	C162.599335,455.811035 172.318405,443.187408 181.121902,429.898590 
	C190.014999,416.474609 199.948410,403.738159 208.964325,390.378754 
	C217.321396,377.995636 226.302353,366.059479 234.811218,353.787292 
	C235.664139,352.557190 236.491806,351.304352 238.076447,350.265686 
	C242.080704,349.690826 244.018692,347.889526 243.523407,343.940674 
	C243.361801,342.652161 243.566833,341.320190 244.054016,339.702423 
	C255.754639,325.386932 265.556244,310.154816 275.349823,294.940155 
	C278.481750,290.074585 282.935028,286.097717 285.326965,280.314240 
	C287.566711,279.340210 289.539673,279.295990 291.980591,279.479919 
	C296.678436,279.124634 300.934235,279.157959 305.649719,279.444489 
	C312.860596,278.999481 319.617737,279.257721 326.791931,279.370239 
	C333.291382,279.018921 333.302734,279.019073 333.373627,273.208527 
	C333.405823,270.569427 333.223114,267.917786 333.413391,265.292938 
	C333.694977,261.409088 332.301422,259.284729 327.753662,259.532166 
	C320.639465,259.969574 313.943756,259.787323 306.795105,259.598572 
	C303.014984,259.707153 299.683441,259.991699 295.977631,259.011841 
	C293.256775,257.067474 294.131470,255.075912 295.206451,253.110321 
	C296.005432,251.649368 297.326721,250.564743 298.499207,248.825348 
	C299.068817,248.360611 299.323517,248.209030 299.996552,247.907623 
	C303.892487,247.069885 307.399750,247.313171 311.318298,247.454865 
	C314.393921,247.267487 317.062103,247.310272 319.722778,247.366531 
	C322.745850,247.430450 324.429230,246.361374 324.361877,243.051910 
	C324.277161,238.889908 324.421967,234.723465 324.298096,230.559616 
	C324.246826,228.836517 323.818634,227.266754 322.131042,225.811844 
	C320.413025,221.820618 322.613586,219.050446 324.478241,215.845947 
	C325.319763,215.214233 325.922974,214.780060 326.551849,214.829147 
	C332.047607,215.258072 334.140625,212.445175 333.980408,206.950592 
	C339.916199,202.630478 342.995667,196.467148 346.907623,190.922150 
	C356.678101,177.072891 366.128357,162.990616 376.522003,149.586853 
	C379.083557,146.283432 380.598175,142.334213 383.060547,138.964890 
	C398.350494,118.043167 412.962616,96.642815 427.937622,75.501595 
	C433.810516,67.210403 438.620819,58.114986 445.074341,50.405323 
	C455.267090,38.228558 462.720642,24.212435 472.615540,11.905636 
	C475.151947,8.751032 476.677551,5.066007 478.758606,1.269377 
z"/>
<path fill="#080A09" opacity="1.000000" stroke="none" 
	d="
M1.287562,403.220093 
	C1.000000,370.312439 1.000000,337.624878 1.000000,304.468658 
	C7.858725,289.861237 18.158554,277.912079 27.086422,265.223145 
	C36.435249,251.935959 45.837952,238.559967 55.202789,225.270477 
	C62.641750,214.713928 70.378075,204.293549 77.624947,193.559311 
	C88.313766,177.726746 98.855774,161.735474 110.785683,146.759521 
	C111.304306,146.108490 111.971268,145.538712 112.334106,144.805389 
	C118.952888,131.428513 129.923279,121.034019 137.368393,108.219559 
	C141.560959,101.003334 147.732666,95.125473 151.787201,87.860420 
	C158.528976,75.780228 169.065109,66.324173 174.983185,53.701553 
	C176.182877,51.142765 178.200043,49.057384 180.137222,46.982788 
	C183.556976,43.320457 186.803864,39.481556 189.195831,35.083267 
	C195.746918,23.037231 205.180984,13.014836 212.749084,1.257796 
	C239.687561,1.000000 266.375122,1.000000 293.531342,1.000000 
	C295.694916,2.879856 294.910370,4.693690 293.821045,6.468945 
	C289.825867,12.979714 286.039246,19.642963 280.493683,25.040308 
	C277.940674,27.525049 276.659210,30.851995 274.735718,33.752182 
	C260.416077,55.343033 245.039124,76.202187 230.268799,97.477371 
	C223.370865,107.413147 216.474640,117.332382 209.626434,127.732613 
	C207.105179,128.732758 204.859482,128.721786 202.161285,128.515549 
	C197.588638,128.881607 193.446426,128.711121 188.870758,128.581711 
	C186.713745,128.553238 184.993057,128.762344 182.853973,128.544189 
	C181.088303,128.482407 179.739044,128.639511 178.001801,128.521912 
	C176.859344,128.479828 176.110886,128.527679 175.062500,128.968781 
	C171.742004,136.964874 170.668320,144.822937 174.874863,152.609100 
	C176.372070,155.380356 175.523300,157.687119 173.539520,160.193756 
	C166.849808,161.569382 169.197037,167.047745 167.973602,171.153992 
	C159.266785,177.810104 154.701218,187.189026 149.326202,195.918625 
	C146.518829,200.478088 142.802490,204.303238 139.587631,208.518082 
	C132.911148,217.271317 127.040489,226.568665 120.949448,235.680908 
	C112.623177,248.137085 103.191635,259.774384 95.013817,272.332947 
	C84.395523,288.639374 71.860451,303.641418 61.863823,320.389557 
	C59.466095,324.406708 56.429768,327.970856 53.625252,331.674866 
	C41.171074,348.123352 30.420073,365.777527 17.737228,382.058624 
	C13.331403,387.714417 9.781267,393.954712 5.874425,399.950623 
	C4.816719,401.573914 4.192203,403.736023 1.287562,403.220093 
z"/>
<path fill="#050606" opacity="1.000000" stroke="none" 
	d="
M212.531342,1.000000 
	C212.048584,6.679795 207.997803,10.700987 204.786316,14.936123 
	C199.861755,21.430367 194.989685,27.883636 190.931580,34.975239 
	C188.134521,39.863159 184.696548,44.327194 180.702728,48.375359 
	C177.660461,51.459011 175.583389,55.208382 173.783386,59.210201 
	C170.895889,65.629837 165.612045,70.459755 161.296494,75.867805 
	C158.243698,79.693420 156.600555,84.168449 153.704727,88.040169 
	C147.058990,96.925476 140.102509,105.619896 134.381363,115.180916 
	C131.492142,120.009300 128.228821,124.565445 124.367554,128.710098 
	C121.889778,131.369736 119.442497,134.134308 118.147148,137.667648 
	C115.563759,144.714325 109.710487,149.519028 105.756958,155.642349 
	C96.243248,170.377380 84.812080,183.797272 75.955795,198.998032 
	C72.030411,205.735489 65.516197,210.594772 61.971203,217.598862 
	C56.756992,227.900909 48.487076,236.046051 42.469009,245.786133 
	C34.052193,259.408569 23.886780,271.833252 15.043310,285.196350 
	C10.858789,291.519440 6.357560,297.811523 1.355216,303.952698 
	C1.000000,256.979095 1.000000,209.958206 1.000000,162.468658 
	C17.056023,137.031479 34.995697,113.369087 51.696667,88.853783 
	C59.726879,77.066269 68.118843,65.540588 76.210907,53.801003 
	C88.358261,36.178196 100.327003,18.411892 113.748581,1.256007 
	C146.687561,1.000000 179.375122,1.000000 212.531342,1.000000 
z"/>
<path fill="#0D100F" opacity="1.000000" stroke="none" 
	d="
M238.432068,350.385437 
	C234.138626,357.743927 229.965179,364.714233 224.049805,370.403564 
	C221.681793,372.681183 220.912888,375.845673 219.087189,378.410980 
	C207.676529,394.444519 195.796631,410.174896 185.072845,426.656799 
	C176.333969,440.088043 166.003601,452.368256 157.764771,466.148468 
	C153.544952,473.206482 148.066559,479.503082 143.316986,486.256378 
	C140.095093,490.837494 137.151398,495.614288 134.041641,500.651794 
	C102.979103,501.000000 71.958214,501.000000 40.468658,501.000000 
	C38.399723,498.289886 40.578644,496.514618 41.859318,494.829407 
	C50.924698,482.900879 59.206997,470.422974 67.631042,458.054504 
	C78.025719,442.792603 88.699120,427.709198 99.472572,412.738861 
	C114.440750,391.939697 128.707352,370.655090 143.593094,349.801483 
	C155.273895,333.437683 167.230392,317.225403 178.236877,300.373413 
	C180.423752,297.025146 183.224014,294.130646 185.145264,290.586243 
	C186.652130,287.806335 187.273254,285.686737 183.127365,284.816284 
	C181.293655,284.431274 178.984009,283.838867 180.030594,280.641724 
	C181.000839,279.936310 181.765350,279.714233 182.993454,279.589722 
	C185.416779,279.290863 187.424133,279.275848 189.874237,279.485474 
	C194.201828,279.153137 198.090958,279.222534 202.432922,279.445984 
	C205.014435,279.327423 207.143646,279.119720 209.734894,279.461456 
	C214.842178,279.113892 219.490067,279.141632 224.606445,279.436401 
	C231.049362,279.060272 237.026184,279.131409 243.474548,279.418152 
	C249.616257,279.073486 255.288544,279.129059 261.432190,279.417175 
	C268.515900,279.114410 275.128479,279.065491 282.210999,279.577759 
	C283.315369,279.824738 283.896851,280.090271 284.711121,280.861145 
	C285.198914,283.520508 284.496033,285.487701 283.141815,287.298981 
	C272.332428,301.756836 262.388458,316.806824 252.438599,331.859741 
	C250.621109,334.609375 248.841324,337.854156 244.828629,338.992188 
	C242.605972,335.930634 243.677353,332.500183 243.276993,329.243134 
	C243.107758,327.866516 243.690674,325.732697 241.683090,325.565308 
	C239.541046,325.386688 239.817047,327.591248 239.726425,328.934509 
	C239.473236,332.687103 238.306717,335.336334 233.941803,335.576263 
	C228.755341,335.861359 227.120148,334.649750 226.371857,329.401550 
	C226.301453,328.907837 226.321609,328.397095 226.212128,327.912354 
	C225.966278,326.823975 226.046280,325.306885 224.363663,325.495880 
	C222.839905,325.667114 222.869644,327.125000 222.795334,328.238007 
	C222.528793,332.229370 222.703125,336.229889 222.678726,340.226562 
	C222.666534,342.223511 222.566360,344.228546 222.862122,346.213928 
	C223.009247,347.201477 223.182114,348.369141 224.414444,348.461914 
	C225.696732,348.558380 225.939301,347.436279 226.123566,346.429352 
	C226.273834,345.608368 226.281464,344.772034 226.370331,343.944824 
	C226.953339,338.518677 228.477020,337.156677 233.609436,337.445496 
	C238.186523,337.703033 239.563568,339.356384 239.619781,344.745056 
	C239.638870,346.575104 239.667389,348.422974 238.432068,350.385437 
z"/>
<path fill="#131616" opacity="1.000000" stroke="none" 
	d="
M311.254608,500.747070 
	C292.312439,501.000000 273.624878,501.000000 254.468658,501.000000 
	C252.866684,499.675812 253.541367,498.414459 254.348480,497.378265 
	C259.168274,491.190369 262.048889,483.786316 266.968719,477.640686 
	C273.625122,469.325806 278.313477,459.433197 285.230042,451.534546 
	C294.842316,440.557373 300.288605,426.779510 310.691010,416.451569 
	C315.763306,411.415588 318.667145,404.620514 322.813721,398.780914 
	C331.938782,385.930267 339.738617,372.133820 350.242462,360.269043 
	C353.163269,356.969788 354.538269,352.785065 357.129395,349.295349 
	C370.199005,331.693298 382.731415,313.706818 394.685547,295.332977 
	C396.969513,291.822449 399.269836,288.448303 402.165710,285.440643 
	C407.761993,279.628296 411.077393,272.233459 415.592926,265.668701 
	C417.398438,263.043701 419.369141,260.651245 421.421234,258.259155 
	C427.070038,251.674423 430.909912,243.833084 436.087524,236.912506 
	C436.873444,235.862000 437.254211,234.470062 438.218475,233.551208 
	C444.616486,227.454468 447.186981,218.657104 452.756927,212.214432 
	C461.078400,202.589188 467.090973,191.467758 474.721924,181.516083 
	C481.115479,173.178131 486.731842,164.399048 492.702515,155.821625 
	C494.657349,153.013351 496.238007,149.653137 500.712341,149.778473 
	C501.000000,176.687561 501.000000,203.375122 501.000000,230.531342 
	C494.349640,240.731140 487.592834,250.406296 481.059906,260.196869 
	C471.367767,274.722076 460.683716,288.529358 451.110046,303.148193 
	C443.661682,314.521759 435.162933,325.259369 427.560242,336.570282 
	C416.058075,353.682709 403.461517,370.017151 392.073883,387.214661 
	C385.842590,396.625122 378.590546,405.375549 372.435791,414.835175 
	C359.828461,434.211945 345.456665,452.341156 332.809723,471.683075 
	C327.355774,480.024261 321.214691,487.896973 315.439606,496.021118 
	C314.288025,497.641174 313.227814,499.362946 311.254608,500.747070 
z"/>
<path fill="#151918" opacity="1.000000" stroke="none" 
	d="
M311.468658,501.000000 
	C312.092346,496.665222 315.218689,493.405121 317.767426,490.123077 
	C328.542786,476.247803 337.391663,461.013367 348.115417,447.172913 
	C359.389862,432.621704 368.879608,416.873779 379.881073,402.136963 
	C387.867218,391.439331 395.805450,380.577515 402.753540,369.058411 
	C407.009857,362.001923 412.682343,355.815704 417.411285,349.024506 
	C424.688599,338.573639 431.439880,327.748993 438.911774,317.443573 
	C444.640015,309.543091 450.811646,301.942322 455.879272,293.597412 
	C462.841522,282.132599 471.410248,271.805786 479.001648,260.790833 
	C485.892181,250.792786 491.808685,239.975266 500.664825,231.056747 
	C501.000000,271.354218 501.000000,311.708466 501.000000,352.531342 
	C487.446838,371.950348 474.124420,391.067657 460.606445,410.036743 
	C449.706818,425.331726 439.210266,440.915100 428.078613,456.064178 
	C417.453949,470.523285 406.962097,485.172791 397.241699,500.734375 
	C368.645782,501.000000 340.291534,501.000000 311.468658,501.000000 
z"/>
<path fill="#111514" opacity="1.000000" stroke="none" 
	d="
M501.000000,149.531342 
	C497.601471,150.753174 495.767365,153.436661 494.056305,156.025024 
	C488.082397,165.061905 483.071625,174.715866 475.256073,182.525848 
	C472.314392,185.465424 470.140869,189.466904 468.524750,193.360962 
	C466.749573,197.638382 464.216095,201.213989 461.057434,204.377487 
	C455.535522,209.907806 451.184296,216.182953 447.837494,223.229416 
	C446.926086,225.148300 445.612762,226.940063 444.209106,228.550659 
	C436.823029,237.025681 432.133362,247.481628 424.829926,255.872238 
	C416.439026,265.512268 411.578918,277.541412 402.757202,286.726349 
	C398.361359,291.303192 395.689484,296.918976 392.234344,302.068237 
	C387.368103,309.320496 381.519714,315.978821 377.228912,323.536926 
	C370.674225,335.082794 360.535492,344.060272 354.788513,356.144501 
	C353.182587,359.521271 350.531036,362.473663 348.039703,365.343414 
	C338.717743,376.081329 331.979279,388.594360 323.813721,400.116302 
	C317.702179,408.739929 311.944122,417.612518 305.032623,425.716309 
	C300.152283,431.438568 297.264069,438.848083 292.443054,444.635040 
	C281.544464,457.717316 273.199860,472.568634 262.921967,486.080994 
	C259.635498,490.401794 257.149384,495.623840 254.041290,500.652527 
	C240.312439,501.000000 226.624878,501.000000 212.468658,501.000000 
	C211.997635,498.846100 211.995651,496.830353 213.415649,494.856323 
	C222.305984,482.497375 231.105057,470.071869 239.842010,457.603729 
	C249.252136,444.174957 258.531860,430.654877 267.923157,417.212830 
	C275.393372,406.520477 282.959564,395.895203 290.458557,385.222839 
	C299.692230,372.081696 308.882782,358.910248 318.124329,345.774597 
	C328.039307,331.681763 338.022064,317.636536 347.918945,303.531006 
	C356.555511,291.221710 365.086395,278.838348 373.713776,266.522614 
	C383.795532,252.130707 393.968933,237.802917 404.032501,223.398361 
	C413.027008,210.523956 421.878876,197.549850 430.880310,184.680328 
	C440.463684,170.978821 450.085846,157.303467 459.808167,143.700363 
	C468.763550,131.170334 477.525940,118.497887 486.441315,105.958313 
	C490.750092,99.898026 493.521057,92.313583 500.653931,88.041016 
	C501.000000,108.354225 501.000000,128.708450 501.000000,149.531342 
z"/>
<path fill="#0D100F" opacity="1.000000" stroke="none" 
	d="
M478.531342,1.000000 
	C479.401184,5.202891 476.980438,8.344080 474.728912,11.369945 
	C467.608551,20.938967 461.730438,31.438446 454.321075,40.694977 
	C443.312256,54.448360 434.305969,69.541496 423.951447,83.719666 
	C416.364502,94.108269 408.246155,104.251137 402.048462,115.670319 
	C400.090851,119.277161 397.559082,122.725189 394.683533,125.649483 
	C388.535858,131.901443 384.758057,139.679855 379.974670,146.822205 
	C374.356415,155.211090 368.288818,163.306610 362.444489,171.542023 
	C355.641327,181.128540 348.678162,190.595810 342.288025,200.471268 
	C340.757782,202.836182 339.258636,205.280029 335.862854,205.981781 
	C332.805756,204.713455 333.331055,202.089218 333.401215,199.966415 
	C333.540344,195.756897 331.584778,194.383682 327.688080,194.658630 
	C325.721558,194.797363 323.723328,194.815979 321.313293,194.532440 
	C318.171143,194.784119 315.463348,194.864258 312.293701,194.547180 
	C305.921661,194.939453 300.007874,194.832764 293.628937,194.581161 
	C289.749207,194.805389 286.333557,194.886520 282.452271,194.562103 
	C275.790192,194.750336 269.588013,195.202957 262.983765,194.023621 
	C259.158661,189.965363 262.633698,187.120621 264.334106,183.610962 
	C267.531616,180.883728 270.949432,181.317398 274.772888,181.473587 
	C280.102631,181.104416 284.978516,181.222305 290.310242,181.428055 
	C292.596558,181.391647 294.426941,181.103134 296.716400,181.462219 
	C302.364014,181.081924 307.557281,181.233276 313.194519,181.412933 
	C315.667511,181.362198 317.696960,181.168304 320.127869,181.498169 
	C324.046814,181.621979 325.601105,179.994720 325.430328,176.420044 
	C325.273590,173.139069 325.265167,169.835190 325.432037,166.555359 
	C325.615997,162.940292 323.981262,161.403732 320.106079,161.507690 
	C318.007782,161.688782 316.311646,161.790161 314.173035,161.525391 
	C308.625610,161.930603 303.513855,161.703278 297.962708,161.600769 
	C295.760651,161.528900 294.000458,161.782333 291.807251,161.504410 
	C290.515167,161.377396 289.653625,161.306137 288.488983,160.723419 
	C286.493256,158.450165 287.995850,156.877380 289.011353,155.312912 
	C290.077881,153.669876 290.455444,151.733475 291.747437,149.758270 
	C292.296814,149.293610 292.549866,149.145355 293.224854,148.857513 
	C297.843719,148.021423 302.059753,148.239075 306.730286,148.458588 
	C312.961853,148.021805 318.744934,148.270676 324.946289,148.376633 
	C326.529938,148.542908 327.685669,148.242706 328.840698,148.326874 
	C332.400787,148.586304 333.487061,146.676331 333.369781,143.461426 
	C333.279205,140.979187 333.367584,138.488907 333.358429,136.002304 
	C333.332611,128.984955 333.328339,128.984970 325.892822,128.529877 
	C319.724060,128.954651 313.976074,128.784836 307.782715,128.592438 
	C303.236755,128.729401 299.135590,128.950439 294.662476,128.193481 
	C290.929962,126.091637 292.482666,123.642960 294.094971,121.812874 
	C307.345154,106.772659 317.183411,89.287193 328.944183,73.179405 
	C335.882935,63.675983 343.458557,54.500942 348.712860,43.796528 
	C350.634491,39.881710 354.322510,37.246765 356.956696,33.798676 
	C364.931946,23.359253 370.847107,11.488607 379.751404,1.266907 
	C412.687561,1.000000 445.375122,1.000000 478.531342,1.000000 
z"/>
<path fill="#0B0D0C" opacity="1.000000" stroke="none" 
	d="
M179.718384,280.732666 
	C180.697601,283.786591 183.206406,283.727356 185.182343,283.900665 
	C189.042236,284.239227 189.240784,285.921570 187.605789,288.817261 
	C182.542480,297.784821 175.722305,305.563690 170.313766,314.275208 
	C163.250565,325.651825 153.654205,335.246826 147.592209,347.342438 
	C145.540100,351.437042 142.598114,355.205933 139.529083,358.647797 
	C130.751755,368.491425 124.512924,380.089844 116.844131,390.691040 
	C108.895370,401.679291 100.128212,412.170227 93.152519,423.742798 
	C85.173615,436.979706 75.042351,448.591644 66.768692,461.578064 
	C58.351311,474.790100 49.016968,487.417877 40.042084,500.650757 
	C27.908804,501.000000 15.816531,500.916321 3.727337,501.071930 
	C1.362033,501.102356 0.889025,500.590546 0.930419,498.259308 
	C1.098008,488.821198 1.000000,479.378387 1.000000,469.468658 
	C12.844749,452.133789 24.470247,435.112823 36.451706,418.344025 
	C51.329258,397.521973 66.075493,376.594330 80.574226,355.522858 
	C90.929108,340.473724 101.965485,325.906433 112.025833,310.629883 
	C119.491211,299.293762 127.792046,288.421143 135.640457,277.309265 
	C143.015259,266.867920 150.479675,256.460205 157.604050,245.831375 
	C159.001175,243.747025 160.511047,241.764816 162.225754,239.952072 
	C163.694962,238.398865 165.383392,237.416229 167.675522,239.345886 
	C169.575455,247.320297 169.575439,247.323273 177.697617,247.367493 
	C178.694778,247.372925 179.689041,247.404068 181.101486,247.478729 
	C185.701309,247.112991 189.883057,247.182175 194.519516,247.439148 
	C199.550110,247.098511 204.130447,247.229309 209.158508,247.407288 
	C212.275436,247.343353 214.949936,247.111008 217.982513,247.993958 
	C220.462173,249.699371 219.483124,251.335068 218.439926,252.860809 
	C217.235794,254.621948 215.778900,256.202576 214.288910,258.283722 
	C212.947083,259.190155 211.827515,259.433685 210.209869,259.458466 
	C207.730896,259.691010 205.687057,259.763275 203.199066,259.516602 
	C198.892181,259.849762 195.024399,259.751160 190.715454,259.562256 
	C188.230621,259.627716 186.187180,259.802673 183.716888,259.542938 
	C181.646729,259.571045 180.001358,259.706940 177.971405,259.564514 
	C175.134949,259.404083 173.893585,260.783966 173.717667,263.028381 
	C173.346100,267.769104 173.374191,272.525726 173.700882,277.269897 
	C173.811523,278.876434 174.502899,280.141876 176.849365,279.923584 
	C178.003830,279.920441 178.746353,280.090027 179.718384,280.732666 
z"/>
<path fill="#090B0B" opacity="1.000000" stroke="none" 
	d="
M166.912582,238.869888 
	C162.403656,239.131104 161.061295,242.938461 159.588486,245.423431 
	C154.416992,254.148880 147.438614,261.526123 142.127487,270.140930 
	C135.804398,280.397095 127.951790,289.640289 121.172592,299.580017 
	C109.451691,316.765320 97.317902,333.642395 85.348648,350.641052 
	C80.472488,357.566162 75.599113,364.590576 70.814758,371.626373 
	C63.559490,382.295929 55.575649,392.481262 48.561848,403.300507 
	C42.327908,412.916779 34.763332,421.587769 28.735102,431.240295 
	C21.186239,443.327728 11.943856,454.208649 4.714375,466.476288 
	C4.028211,467.640594 3.105608,468.604218 1.347239,468.958069 
	C1.000000,447.312439 1.000000,425.624878 1.000000,403.468658 
	C2.253145,402.919952 3.155733,402.382324 3.788018,401.229889 
	C10.422019,389.138489 18.783411,378.245209 27.061663,367.265717 
	C34.418922,357.507721 40.375278,346.757050 47.921417,337.103210 
	C56.804863,325.738525 63.949299,313.131561 72.496780,301.580505 
	C84.307602,285.619415 95.203522,269.026825 107.085014,253.116302 
	C117.277405,239.467651 125.929649,224.665482 136.179962,211.064499 
	C144.536133,199.976837 151.914536,188.262802 160.001755,177.021271 
	C161.539459,174.883820 162.956970,172.544235 166.226562,172.007507 
	C168.660858,172.924820 168.588409,174.940704 168.566147,176.648438 
	C168.517166,180.403641 170.448273,181.506088 173.829330,181.352798 
	C175.958694,181.256256 178.107803,181.195358 180.667389,181.474045 
	C183.454834,181.262680 185.815826,181.161911 188.631607,181.460037 
	C193.070724,181.266907 197.065475,180.858902 201.408646,182.191589 
	C204.575867,185.907806 202.325531,188.833862 200.425079,192.163666 
	C194.670151,194.866180 188.852646,192.994247 182.869263,194.093964 
	C181.021179,194.412689 179.600891,194.432861 177.778198,194.148270 
	C175.559830,193.457428 174.177185,193.456009 173.803955,195.906693 
	C172.976212,201.342087 172.143219,206.766891 172.704971,212.288986 
	C172.876205,213.972351 173.320389,215.430420 174.831696,216.579453 
	C177.812958,218.846039 177.982315,221.824341 176.155441,225.319550 
	C174.724884,226.338058 173.411743,226.558578 172.103409,226.657990 
	C169.595047,226.848602 168.834595,228.349030 168.693146,230.621429 
	C168.522217,233.367218 169.135727,236.274719 166.912582,238.869888 
z"/>
<path fill="#0B0D0C" opacity="1.000000" stroke="none" 
	d="
M379.531342,1.000000 
	C380.215912,4.743054 377.427795,7.414837 375.425110,9.500213 
	C367.973053,17.260000 364.842957,27.894154 357.304443,35.495625 
	C347.906403,44.972076 342.361816,57.213928 334.490234,67.829636 
	C325.975769,79.312332 316.943359,90.624283 309.905182,103.074974 
	C305.122131,111.536293 297.789673,117.849358 292.715607,126.871445 
	C288.880829,129.295898 285.186279,128.592041 281.087585,128.531250 
	C274.737305,128.928238 268.845825,128.846390 262.488037,128.572601 
	C256.716370,128.920288 251.408569,128.849487 245.637848,128.582382 
	C239.657913,128.922455 234.135910,128.726700 228.164612,128.606888 
	C226.810471,128.475998 225.906189,128.578445 224.553345,128.518524 
	C223.204773,128.491867 222.305115,128.613586 220.952545,128.512909 
	C217.150681,128.700668 213.768631,129.223633 210.292755,127.231049 
	C209.880707,124.944931 210.823593,123.402969 211.744217,121.796486 
	C217.751602,111.313545 225.416626,101.989342 232.327866,92.137512 
	C245.117004,73.906807 257.944855,55.696972 270.346222,37.203278 
	C276.136383,28.568668 283.159180,20.867237 288.634918,12.058524 
	C290.658386,8.803419 293.833832,6.034425 293.999268,1.386780 
	C322.354218,1.000000 350.708466,1.000000 379.531342,1.000000 
z"/>
<path fill="#020303" opacity="1.000000" stroke="none" 
	d="
M113.531342,1.000000 
	C113.246849,5.330977 109.940804,8.148355 107.643089,11.536723 
	C99.109116,24.121532 90.051262,36.338627 81.504433,48.925900 
	C76.644684,56.083046 71.336472,63.135803 66.316048,70.195389 
	C56.735424,83.667419 47.763382,97.653069 37.823833,110.849861 
	C27.295126,124.828888 19.409506,140.703995 7.113780,153.359497 
	C4.673764,155.870911 5.620225,160.408585 1.354147,161.953644 
	C1.000000,109.583931 1.031129,57.167801 0.921627,4.751961 
	C0.915149,1.651362 1.596592,0.906196 4.736508,0.917457 
	C40.844868,1.046959 76.953857,1.000000 113.531342,1.000000 
z"/>
<path fill="#181C1B" opacity="1.000000" stroke="none" 
	d="
M397.468658,501.000000 
	C397.009918,499.341278 397.062164,497.810333 398.170990,496.301239 
	C411.116547,478.682617 423.348267,460.556000 436.140045,442.820435 
	C447.224792,427.451660 457.878571,411.713806 468.621094,396.069611 
	C477.895813,382.562988 487.552002,369.318451 497.012390,355.938873 
	C497.892883,354.693604 498.712738,353.464691 500.653748,353.041626 
	C501.000000,401.082916 500.966156,449.165924 501.078644,497.248566 
	C501.085876,500.348877 500.403687,501.095551 497.263977,501.082855 
	C464.155518,500.948975 431.046326,501.000000 397.468658,501.000000 
z"/>
<path fill="#0D100F" opacity="1.000000" stroke="none" 
	d="
M324.699249,215.790344 
	C324.027039,218.858505 323.056244,221.564713 322.040894,224.630722 
	C319.011536,227.589767 315.439636,226.550095 311.577942,226.567108 
	C307.724243,226.798599 304.334717,226.855133 300.483704,226.557190 
	C296.030640,226.847031 292.036041,226.825348 287.579590,226.564270 
	C284.647369,226.720062 282.175934,226.901581 279.237305,226.546860 
	C271.573334,226.976044 264.373108,226.826004 256.711029,226.593719 
	C251.356354,226.747070 246.460220,227.095581 241.171265,226.082352 
	C238.612366,224.508087 239.439346,222.809555 240.404877,221.225281 
	C241.431229,219.541214 242.305130,217.772507 243.675446,215.790558 
	C244.757019,214.958832 245.611130,214.700073 246.978546,214.573822 
	C251.702713,214.107864 255.977295,214.182327 260.716187,214.450623 
	C267.743439,214.038727 274.309814,214.165283 281.342957,214.412338 
	C285.237732,214.196289 288.666595,214.103714 292.562500,214.437119 
	C298.927673,214.053177 304.830383,214.210815 311.191803,214.401840 
	C314.405609,214.296265 317.160645,214.153122 320.377808,214.475052 
	C322.099762,214.532913 323.331665,214.662979 324.699249,215.790344 
z"/>
<path fill="#0D100F" opacity="1.000000" stroke="none" 
	d="
M214.320953,258.258972 
	C213.546158,253.941055 217.959686,252.935883 218.949371,249.486771 
	C220.047699,247.690399 221.596725,247.509857 223.683151,247.500122 
	C228.170410,247.139297 232.191940,247.152695 236.681213,247.446686 
	C243.111542,247.060181 249.076843,247.129242 255.513489,247.420746 
	C263.232941,247.018799 270.484528,247.186920 278.203125,247.393036 
	C281.168915,247.310760 283.667480,247.076523 286.637451,247.447876 
	C290.891479,247.301971 294.717682,246.615494 298.670593,248.721497 
	C299.661224,252.740799 294.550537,253.555145 295.006989,257.487335 
	C294.473083,258.702850 293.638428,259.070953 292.262939,259.368134 
	C289.065369,259.783417 286.320557,259.806824 283.109924,259.536957 
	C276.089630,259.949280 269.529907,259.857330 262.499939,259.578949 
	C256.353058,259.928497 250.674545,259.877594 244.523163,259.582336 
	C238.046249,259.933014 232.040070,259.869781 225.556992,259.583801 
	C221.560776,259.709900 217.997147,260.353638 214.320953,258.258972 
z"/>
<path fill="#E3E4E3" opacity="1.000000" stroke="none" 
	d="
M328.334351,280.529297 
	C320.989594,280.937927 313.967010,280.974365 306.482056,280.938293 
	C302.895935,273.631317 303.778656,266.274811 305.687866,258.539337 
	C313.046967,258.115814 320.068817,258.050262 327.553894,258.067261 
	C331.075775,265.402893 330.233307,272.769318 328.334351,280.529297 
z"/>
<path fill="#CBCDCD" opacity="1.000000" stroke="none" 
	d="
M238.565277,350.774963 
	C238.200928,348.519745 237.989288,346.318909 238.349106,344.215820 
	C239.143173,339.574371 237.015732,338.958923 232.895615,338.851257 
	C228.278885,338.730652 226.631210,340.140472 227.346466,344.603271 
	C227.528122,345.736816 227.302414,346.929626 227.388870,348.085815 
	C227.535919,350.051910 227.094070,351.158142 224.719254,351.088287 
	C222.585251,351.025513 221.336044,350.800720 221.388702,348.164825 
	C221.534622,340.859344 221.500259,333.548279 221.406433,326.241119 
	C221.377075,323.954132 222.029800,323.045715 224.494370,323.005890 
	C227.173538,322.962646 227.557983,324.260376 227.373840,326.362000 
	C227.344971,326.691620 227.366821,327.026093 227.371582,327.358215 
	C227.462738,333.708282 230.670532,336.111816 236.767197,333.898712 
	C239.931274,332.750153 237.942368,329.601990 238.209595,327.404572 
	C238.496750,325.043304 237.950104,322.687683 241.691666,323.013855 
	C243.619003,323.181915 244.294434,323.744537 244.259521,325.640411 
	C244.183075,329.791168 244.255203,333.944702 244.356491,338.558044 
	C244.373535,341.307831 243.982620,343.641113 244.295242,345.876007 
	C244.914749,350.304901 243.260803,351.877594 238.565277,350.774963 
z"/>
<path fill="#CBCDCD" opacity="1.000000" stroke="none" 
	d="
M262.286438,342.166931 
	C264.260803,336.643311 266.237305,331.529175 267.855713,326.304169 
	C268.619171,323.839294 269.732300,322.879272 272.377289,322.933990 
	C274.971375,322.987579 276.553528,323.342224 277.481110,326.245697 
	C280.092072,334.418365 283.117157,342.458710 286.000244,350.611359 
	C282.126038,351.541931 279.204681,351.608093 278.399994,346.863281 
	C277.713867,342.817627 274.232910,344.630890 271.881836,344.403564 
	C269.830536,344.205231 267.275177,343.739868 266.911438,346.972809 
	C266.350281,351.959869 263.027679,351.275208 259.427307,350.712860 
	C260.374084,347.859009 261.257904,345.194977 262.286438,342.166931 
z"/>
<path fill="#181C1B" opacity="1.000000" stroke="none" 
	d="
M310.692688,225.381195 
	C314.352997,225.002914 317.716766,224.998459 321.538452,224.992279 
	C324.924591,224.663940 326.158173,225.820297 326.051880,228.904907 
	C325.864532,234.341217 325.910736,239.790634 326.035431,245.230515 
	C326.098022,247.962555 325.116608,249.156219 322.310760,249.029541 
	C319.183502,248.888351 316.044830,248.999741 312.443848,248.993256 
	C311.439941,248.349350 310.775452,247.687149 310.755096,246.864456 
	C310.581024,239.829208 308.754791,232.819199 310.692688,225.381195 
z"/>
<path fill="#CBCDCD" opacity="1.000000" stroke="none" 
	d="
M305.572205,258.095428 
	C306.022919,265.436188 306.020721,272.691071 306.019104,280.405853 
	C301.658417,280.913544 297.297150,280.961304 292.476990,280.937378 
	C288.896698,273.629913 289.778320,266.272369 291.686066,258.534912 
	C292.768982,258.117981 293.515625,258.059998 294.629822,257.925934 
	C298.371338,257.903076 301.745300,257.956299 305.572205,258.095428 
z"/>
<path fill="#F9F9F9" opacity="1.000000" stroke="none" 
	d="
M325.455383,216.073334 
	C323.935211,216.087494 322.872620,216.022705 321.415375,215.889771 
	C317.887054,208.541580 318.722504,201.148041 320.690857,193.338776 
	C321.477386,192.865814 321.960114,192.730194 322.447266,192.711761 
	C335.271790,192.226562 335.271881,192.228638 335.447754,205.535187 
	C335.471710,206.322998 335.372894,206.647705 335.362000,206.975372 
	C335.061798,215.981079 335.063293,215.981125 325.455383,216.073334 
z"/>
<path fill="#424444" opacity="1.000000" stroke="none" 
	d="
M299.234009,249.023254 
	C295.292328,249.045471 291.589478,249.018616 287.425964,248.944901 
	C285.283539,247.225342 285.142609,245.043503 285.252655,242.918610 
	C285.547424,237.227692 284.156616,231.426010 286.641724,225.480988 
	C290.988770,225.086548 295.013855,225.065491 299.499756,225.063950 
	C301.384583,226.450485 301.794159,228.241165 301.714966,230.072632 
	C301.453827,236.110123 302.919830,242.258194 300.282776,248.540863 
	C299.956635,248.913086 299.472839,248.974182 299.234009,249.023254 
z"/>
<path fill="#323433" opacity="1.000000" stroke="none" 
	d="
M300.420227,248.948578 
	C299.967651,241.276459 299.978668,233.639816 299.975098,225.543320 
	C303.331909,225.059479 306.703278,225.035492 310.531921,225.009430 
	C311.621216,232.676361 312.402618,240.338776 311.991577,248.519241 
	C308.278961,248.984909 304.581390,248.984482 300.420227,248.948578 
z"/>
<path fill="#CBCDCD" opacity="1.000000" stroke="none" 
	d="
M306.017700,339.008514 
	C306.017792,336.684906 305.850189,334.834808 306.053284,333.026337 
	C306.458679,329.416229 305.612122,327.268158 301.365356,328.040985 
	C299.761993,328.332794 298.480774,328.015198 298.462769,325.785339 
	C298.444183,323.478943 299.514618,323.022766 301.526062,323.060333 
	C306.518646,323.153656 311.514984,323.140411 316.508179,323.064606 
	C318.452423,323.035095 319.634521,323.374329 319.644135,325.735229 
	C319.655060,328.427795 317.875580,328.266388 316.274719,328.031921 
	C312.678101,327.505096 311.742950,328.971069 311.943024,332.421021 
	C312.241302,337.564575 311.928467,342.740631 312.062897,347.897980 
	C312.121887,350.160797 311.614075,351.144531 309.079559,351.106201 
	C306.706024,351.070282 305.817200,350.412567 305.975128,347.988464 
	C306.158722,345.170319 306.017792,342.330994 306.017700,339.008514 
z"/>
<path fill="#B9B9B9" opacity="1.000000" stroke="none" 
	d="
M291.578308,258.092529 
	C292.019653,265.432648 292.016937,272.689331 292.016174,280.405884 
	C289.966064,280.940247 287.914001,281.014801 285.428741,281.171326 
	C284.555664,281.181793 284.115784,281.110291 283.346558,280.974548 
	C279.895294,273.650452 280.756622,266.272003 282.693604,258.507080 
	C285.728760,258.098175 288.431549,258.053680 291.578308,258.092529 
z"/>
<path fill="#F9F9F9" opacity="1.000000" stroke="none" 
	d="
M328.469910,280.974976 
	C328.004883,273.623535 327.997589,266.345551 328.003723,258.608673 
	C328.674774,258.101898 329.341736,258.108429 329.988525,257.997314 
	C334.096588,257.291595 336.019196,258.486755 335.434814,263.133453 
	C334.964508,266.873413 335.340454,270.719757 335.340912,274.518921 
	C335.341705,281.099457 335.341675,281.099457 328.469910,280.974976 
z"/>
<path fill="#090B0B" opacity="1.000000" stroke="none" 
	d="
M173.301346,160.201935 
	C174.596039,156.547028 173.945053,154.171371 171.972351,150.712372 
	C169.364792,146.140106 170.645813,140.089554 171.437210,134.785751 
	C171.797043,132.374222 170.974319,129.371048 173.671387,127.193466 
	C175.978607,129.024857 175.284637,131.605042 175.520950,134.015091 
	C175.975845,138.654587 174.320953,143.450470 176.926987,148.091492 
	C178.660126,148.351532 180.028839,148.299423 181.801788,148.499786 
	C183.942734,148.343536 185.662888,148.239761 187.823074,148.485413 
	C192.120346,148.149429 195.975815,148.227982 200.261292,148.624924 
	C206.875214,149.727936 213.084930,149.427063 219.702850,149.030853 
	C220.902176,148.857056 221.699875,148.838135 222.879608,148.898178 
	C224.466629,149.107895 225.673096,149.321304 227.269257,148.990204 
	C228.697739,148.808701 229.722977,148.903900 231.022812,149.609680 
	C233.581604,155.190598 228.747437,157.189682 226.024261,160.592072 
	C223.681458,161.651886 221.623337,161.723770 219.082855,161.519501 
	C214.065689,161.884644 209.497330,161.821564 204.469650,161.560638 
	C199.396240,161.890808 194.778961,161.807678 189.702271,161.578705 
	C186.787430,161.689301 184.331497,161.880051 181.409607,161.544830 
	C178.431213,161.717743 175.907349,161.981720 173.301346,160.201935 
z"/>
<path fill="#424444" opacity="1.000000" stroke="none" 
	d="
M221.321762,149.768311 
	C214.599106,151.516083 208.130707,150.884415 201.340454,150.222107 
	C199.361023,148.274323 199.209198,146.100555 199.297440,143.946198 
	C199.519760,138.518753 199.582809,133.058990 201.734146,127.486298 
	C204.406616,127.078476 206.759872,127.023285 209.552765,126.924652 
	C213.365326,126.918503 216.738251,126.955818 220.569199,127.037727 
	C222.179657,128.202942 222.579910,129.609512 222.477005,131.158600 
	C222.074310,137.220688 223.475098,143.369278 221.321762,149.768311 
z"/>
<path fill="#F9F9F9" opacity="1.000000" stroke="none" 
	d="
M172.549225,159.913666 
	C175.366348,159.907089 177.733887,159.975998 180.540375,160.113220 
	C184.104660,167.411652 183.225449,174.762833 181.313705,182.500366 
	C179.665588,182.926331 178.347122,183.030426 177.027893,183.041199 
	C166.849091,183.124344 166.849045,183.118729 166.669556,172.453461 
	C166.641602,169.698395 167.073044,167.342484 166.718552,165.111465 
	C165.988525,160.517181 168.001999,159.274475 172.549225,159.913666 
z"/>
<path fill="#323433" opacity="1.000000" stroke="none" 
	d="
M201.586456,127.083405 
	C202.417618,134.472794 200.345383,141.696533 201.015289,149.511841 
	C196.993011,149.976105 192.970718,149.978668 188.486755,149.980164 
	C184.895905,142.672913 185.680099,135.260605 187.751190,127.449211 
	C192.425293,127.061821 196.772415,127.047478 201.586456,127.083405 
z"/>
<path fill="#181C1B" opacity="1.000000" stroke="none" 
	d="
M187.642715,127.046921 
	C188.059204,134.399612 188.040237,141.723083 188.023178,149.512817 
	C186.301575,149.989059 184.578079,149.999023 182.424545,150.007462 
	C178.904129,142.676895 179.705383,135.240036 181.691849,127.393234 
	C183.739090,127.010872 185.473175,127.014282 187.642715,127.046921 
z"/>
<path fill="#111514" opacity="1.000000" stroke="none" 
	d="
M181.588089,127.003708 
	C182.002243,134.360764 181.999496,141.714050 181.995636,149.536652 
	C180.607559,150.003998 179.220612,150.002045 177.417450,149.999237 
	C175.912430,148.859924 175.420959,147.492645 175.523270,145.932877 
	C175.919907,139.885742 174.541733,133.754761 176.691589,127.390457 
	C178.392838,127.003166 179.782013,127.001564 181.588089,127.003708 
z"/>
<path fill="#0D100F" opacity="1.000000" stroke="none" 
	d="
M176.628357,127.003036 
	C177.002655,134.357010 177.001633,141.709229 177.000916,149.529907 
	C174.096954,150.197311 173.967758,148.303314 173.984589,146.146042 
	C174.031921,140.077087 174.001007,134.007538 174.001389,127.469719 
	C174.752243,127.001244 175.502655,127.001274 176.628357,127.003036 
z"/>
<path fill="#A0A1A1" opacity="1.000000" stroke="none" 
	d="
M282.561951,258.061218 
	C283.014008,265.423553 283.002014,272.704437 283.003632,280.447815 
	C276.330048,280.938660 269.642914,280.967041 262.492249,280.936951 
	C258.889008,273.636993 259.764893,266.274200 261.701477,258.530487 
	C268.724915,258.107544 275.411438,258.043640 282.561951,258.061218 
z"/>
<path fill="#6A6C6C" opacity="1.000000" stroke="none" 
	d="
M224.724014,258.543732 
	C231.083740,258.129333 237.102753,258.070190 243.587204,258.091583 
	C247.044937,265.413849 246.212082,272.765656 244.362366,280.507812 
	C238.019012,280.901001 231.997879,280.923798 225.513336,280.904327 
	C221.875336,273.630676 222.757462,266.276123 224.724014,258.543732 
z"/>
<path fill="#878888" opacity="1.000000" stroke="none" 
	d="
M244.503113,280.926270 
	C244.034363,273.613495 244.028580,266.348816 244.037720,258.628113 
	C249.738480,258.116608 255.424347,258.061096 261.574310,258.088501 
	C262.030243,265.433685 262.022034,272.695892 262.021301,280.418304 
	C256.341187,280.910461 250.653641,280.942413 244.503113,280.926270 
z"/>
<path fill="#535554" opacity="1.000000" stroke="none" 
	d="
M224.606354,258.114075 
	C225.051910,265.441986 225.039124,272.695496 225.038147,280.405579 
	C220.357529,280.884918 215.665100,280.907745 210.511063,280.892303 
	C206.874237,273.624115 207.762589,266.269989 209.717407,258.536896 
	C211.107895,258.120087 212.159409,258.060059 213.603012,257.949890 
	C217.379410,257.946381 220.763718,257.993042 224.606354,258.114075 
z"/>
<path fill="#323433" opacity="1.000000" stroke="none" 
	d="
M189.722504,258.414215 
	C194.065430,258.029388 198.089127,258.024750 202.576813,258.057190 
	C206.061188,265.375092 205.244095,272.764496 203.348846,280.553955 
	C199.009308,280.944427 194.986313,280.956390 190.502335,280.968994 
	C186.868896,273.663086 187.704803,266.241180 189.722504,258.414215 
z"/>
<path fill="#CBCDCD" opacity="1.000000" stroke="none" 
	d="
M192.107803,330.140381 
	C190.805847,332.014435 190.340363,333.776123 190.144104,335.605560 
	C189.270401,343.748993 192.801926,347.123169 200.820374,346.029541 
	C201.849854,345.889099 203.749374,343.861145 204.109909,346.900574 
	C204.357178,348.985229 203.811493,350.308838 201.536346,350.919556 
	C195.698730,352.486450 189.380051,350.842621 186.542816,346.806763 
	C183.101715,341.912018 183.140533,332.800629 186.623459,327.864685 
	C189.724808,323.469513 195.429718,321.630890 201.370453,323.422638 
	C202.700516,323.823792 205.499710,323.304291 204.546799,326.555176 
	C203.765045,329.222137 202.572586,329.311707 200.183044,328.382111 
	C197.486603,327.333160 194.599091,327.384857 192.107803,330.140381 
z"/>
<path fill="#181C1B" opacity="1.000000" stroke="none" 
	d="
M189.600220,258.017151 
	C190.030365,265.369202 190.019012,272.704407 190.024506,280.504639 
	C187.986862,280.980469 185.932358,280.991272 183.438934,281.000610 
	C179.897400,273.671906 180.709610,266.234924 182.688339,258.386993 
	C185.052917,258.000092 187.105835,258.000183 189.600220,258.017151 
z"/>
<path fill="#424444" opacity="1.000000" stroke="none" 
	d="
M203.468567,280.953827 
	C203.025589,273.625610 203.018875,266.318787 203.026459,258.553101 
	C205.087555,258.079193 207.134323,258.064178 209.618744,258.114655 
	C210.046600,265.435242 210.036819,272.690369 210.038239,280.399750 
	C208.001236,280.894409 205.953049,280.934814 203.468567,280.953827 
z"/>
<path fill="#151918" opacity="1.000000" stroke="none" 
	d="
M182.571793,257.998627 
	C182.999435,265.354004 182.998871,272.708008 182.999161,280.530548 
	C182.249268,281.000549 181.498550,281.001984 180.372375,281.006104 
	C179.247849,281.005646 178.498779,281.002472 177.375107,280.999054 
	C174.937927,279.042908 175.126526,276.435547 175.235489,274.000610 
	C175.462936,268.918579 174.179047,263.709595 176.690857,258.389435 
	C178.716934,258.000702 180.430267,257.998962 182.571793,257.998627 
z"/>
<path fill="#0B0D0C" opacity="1.000000" stroke="none" 
	d="
M226.309647,160.195038 
	C226.373764,156.197327 231.480286,155.314011 230.995605,150.842072 
	C234.746536,146.498840 239.527802,148.745834 244.353607,148.400345 
	C250.230103,148.095367 255.628174,148.107544 261.501770,148.419006 
	C268.016418,148.068604 274.057251,148.102737 280.581177,148.418961 
	C284.634094,148.273071 288.274048,147.499664 291.790771,150.084076 
	C293.094391,154.503143 289.450165,156.342819 288.043915,159.554153 
	C284.346100,162.934570 280.058777,161.485077 275.520020,161.577850 
	C269.690094,161.909317 264.333374,161.874100 258.504211,161.577728 
	C252.661621,161.912369 247.289627,161.887634 241.439026,161.577271 
	C236.152969,161.637909 231.279831,162.661331 226.309647,160.195038 
z"/>
<path fill="#0B0D0C" opacity="1.000000" stroke="none" 
	d="
M200.286072,192.341736 
	C199.605865,189.110779 202.361404,186.952179 201.996429,183.639038 
	C202.484634,182.340973 203.328705,181.953598 204.741577,181.642822 
	C209.542603,181.057892 213.885773,181.188812 218.696976,181.446747 
	C226.059509,181.029022 232.957474,181.162430 240.319305,181.408508 
	C246.011612,181.136093 251.239090,181.121262 256.909241,181.588226 
	C259.636444,182.201691 262.023041,182.170700 264.646057,183.141754 
	C265.050262,186.533356 262.440948,188.759720 262.008881,192.120834 
	C261.873779,192.764862 261.754364,193.056824 261.255859,193.632797 
	C256.598511,195.297760 252.219070,194.662140 247.403168,194.554871 
	C241.703720,194.925308 236.464844,194.797180 230.777130,194.589722 
	C225.920593,194.792068 221.513748,194.799454 216.693802,194.436615 
	C214.735794,194.071106 213.199692,193.677063 211.211853,194.001465 
	C210.031235,194.157227 209.237579,194.154144 208.043243,194.075150 
	C205.295975,193.515884 202.784073,193.820297 200.286072,192.341736 
z"/>
<path fill="#A0A1A1" opacity="1.000000" stroke="none" 
	d="
M260.684570,193.340973 
	C261.156464,192.874908 261.326813,192.800964 261.745209,192.599945 
	C268.351471,192.536850 274.709686,192.600815 281.522278,192.785065 
	C285.137482,200.212921 284.213928,207.651779 282.358582,215.478745 
	C275.340363,215.872482 268.653931,215.897385 261.504333,215.869156 
	C258.997650,213.877747 259.127869,211.297455 259.241821,208.866501 
	C259.478607,203.814880 258.190338,198.636063 260.684570,193.340973 
z"/>
<path fill="#CBCDCD" opacity="1.000000" stroke="none" 
	d="
M312.352356,215.482025 
	C305.996216,215.885681 299.972198,215.920456 293.485229,215.890961 
	C289.884308,208.543442 290.721436,201.146317 292.689697,193.332306 
	C299.019745,192.836899 305.049164,192.734543 311.529663,192.765076 
	C315.132172,200.210602 314.222961,207.651901 312.352356,215.482025 
z"/>
<path fill="#E3E4E3" opacity="1.000000" stroke="none" 
	d="
M306.685181,127.539124 
	C313.047089,127.116379 319.069672,127.054283 325.555084,127.075752 
	C329.071442,134.465668 328.322937,141.869370 326.285583,149.693359 
	C319.960358,150.146805 313.934326,150.205307 307.449219,150.160187 
	C303.910950,142.754242 304.747986,135.338074 306.685181,127.539124 
z"/>
<path fill="#6A6C6C" opacity="1.000000" stroke="none" 
	d="
M265.408478,183.298706 
	C262.912933,183.313385 260.802185,183.260574 258.355347,183.040085 
	C254.877884,175.646179 255.836273,168.283752 257.618683,160.540207 
	C263.305481,160.142914 268.662994,160.110306 274.483124,160.118958 
	C278.133270,167.399536 277.246735,174.762970 275.286346,182.515839 
	C271.902557,182.998810 268.847900,183.115005 265.408478,183.298706 
z"/>
<path fill="#323433" opacity="1.000000" stroke="none" 
	d="
M314.278229,182.589905 
	C308.612793,182.986542 303.265747,183.002274 297.450684,182.991852 
	C293.911102,175.671127 294.759491,168.261032 296.648254,160.450714 
	C302.317627,160.060638 307.669128,160.049484 313.485107,160.037979 
	C317.140503,167.341263 316.291382,174.762802 314.278229,182.589905 
z"/>
<path fill="#535554" opacity="1.000000" stroke="none" 
	d="
M275.423218,182.952576 
	C274.964386,175.611969 274.971558,168.341339 274.962219,160.615463 
	C278.987915,160.102600 283.030090,160.044983 287.533691,159.942017 
	C288.732391,159.963120 289.469696,160.029587 290.575378,160.133789 
	C292.973846,162.097885 292.863220,164.660492 292.749878,167.082825 
	C292.514648,172.109848 293.787048,177.261963 291.286865,182.507568 
	C285.934021,182.922653 280.911621,182.972595 275.423218,182.952576 
z"/>
<path fill="#CBCDCD" opacity="1.000000" stroke="none" 
	d="
M306.564728,127.092819 
	C307.017548,134.489594 307.010620,141.800735 306.996948,149.584198 
	C302.628143,150.123337 298.266144,150.190125 293.448059,150.156494 
	C289.922333,142.746353 290.705627,135.331512 292.728821,127.532700 
	C293.070099,127.173241 293.081573,126.987038 293.014435,126.922287 
	C297.333191,126.907417 301.719086,126.957291 306.564728,127.092819 
z"/>
<path fill="#B9B9B9" opacity="1.000000" stroke="none" 
	d="
M292.611816,127.089996 
	C293.047363,134.485916 293.024597,141.798599 292.996918,149.583694 
	C292.835205,150.153137 292.678406,150.250153 292.260620,150.438934 
	C288.628296,150.442123 285.256927,150.353561 281.432617,150.176880 
	C277.921448,142.768600 278.728821,135.339432 280.690979,127.523575 
	C284.736755,127.108887 288.445160,127.057816 292.611816,127.089996 
z"/>
<path fill="#B9B9B9" opacity="1.000000" stroke="none" 
	d="
M292.547180,192.811920 
	C292.998077,200.263474 293.005768,207.587692 293.017883,215.369308 
	C289.659821,215.871033 286.297394,215.915390 282.480835,215.903656 
	C282.011444,208.517090 281.996094,201.186615 281.978699,193.380737 
	C285.352448,192.831757 288.728210,192.758179 292.547180,192.811920 
z"/>
<path fill="#F9F9F9" opacity="1.000000" stroke="none" 
	d="
M326.445984,150.196289 
	C325.990692,142.750900 325.994965,135.413498 326.008545,127.617706 
	C335.338989,126.714951 335.338989,126.714951 335.339050,135.693253 
	C335.339050,137.855820 335.338928,140.018387 335.339172,142.180954 
	C335.340088,150.435471 335.340149,150.435471 326.445984,150.196289 
z"/>
<path fill="#E3E4E3" opacity="1.000000" stroke="none" 
	d="
M312.466492,215.913269 
	C312.005890,208.516876 311.991577,201.182846 311.979004,193.373383 
	C314.696686,192.820938 317.412598,192.743942 320.560577,192.806885 
	C321.001801,200.266937 321.010986,207.587036 321.020447,215.364380 
	C318.318085,215.872955 315.615417,215.924286 312.466492,215.913269 
z"/>
<path fill="#151918" opacity="1.000000" stroke="none" 
	d="
M319.698456,160.376923 
	C326.997620,160.011734 326.998230,160.011734 327.000977,166.858856 
	C327.002411,170.483810 326.763794,174.128571 327.064270,177.728439 
	C327.401306,181.766403 326.071747,183.668625 321.437378,183.002350 
	C319.877411,181.997726 318.758972,180.913422 318.661194,179.337631 
	C318.275482,173.122818 317.243561,166.872421 319.698456,160.376923 
z"/>
<path fill="#181C1B" opacity="1.000000" stroke="none" 
	d="
M319.570251,159.997498 
	C320.453247,167.383698 319.028076,174.843552 320.942688,182.587296 
	C318.948669,183.001053 316.896118,183.000275 314.401703,182.985138 
	C313.968018,175.635880 313.976196,168.300995 313.966980,160.501862 
	C315.679504,160.023880 317.409363,160.010147 319.570251,159.997498 
z"/>
<path fill="#424444" opacity="1.000000" stroke="none" 
	d="
M291.385315,182.928757 
	C290.962250,175.607132 290.968079,168.341537 290.958832,160.623734 
	C292.665833,160.124405 294.387878,160.077301 296.538025,160.050995 
	C296.978546,167.393112 296.990936,174.714432 296.993011,182.500732 
	C295.259888,182.972061 293.537048,182.978439 291.385315,182.928757 
z"/>
<path fill="#CBCDCD" opacity="1.000000" stroke="none" 
	d="
M210.319733,248.457764 
	C205.284363,248.880249 200.591064,248.939194 195.437347,248.911530 
	C193.497757,247.467392 193.231949,245.640167 193.278076,243.818558 
	C193.431915,237.742294 192.373566,231.606812 194.388885,225.185944 
	C199.469025,222.273041 204.410233,222.922836 209.797714,224.378372 
	C212.975266,232.419357 212.270767,240.248260 210.319733,248.457764 
z"/>
<path fill="#B9B9B9" opacity="1.000000" stroke="none" 
	d="
M210.422546,248.905319 
	C209.979401,241.245895 209.981140,233.670456 209.981186,225.637726 
	C214.232559,221.990891 218.820374,223.043976 223.829132,224.401062 
	C226.938171,232.441833 226.292816,240.259903 224.310349,248.457367 
	C222.583481,248.878159 221.199188,248.936737 219.406036,249.073425 
	C216.287277,249.097458 213.577362,249.043396 210.422546,248.905319 
z"/>
<path fill="#E3E4E3" opacity="1.000000" stroke="none" 
	d="
M194.648346,224.791687 
	C194.979385,232.754196 194.980911,240.332169 194.979706,248.367523 
	C190.617188,248.880966 186.257431,248.936996 181.438995,248.906494 
	C179.495850,247.464996 179.232407,245.636200 179.278519,243.814957 
	C179.432373,237.737961 178.371216,231.601379 180.392853,225.180237 
	C185.165451,222.425049 189.722565,222.665375 194.648346,224.791687 
z"/>
<path fill="#F9F9F9" opacity="1.000000" stroke="none" 
	d="
M180.672455,224.829193 
	C180.980728,232.755875 180.980331,240.330765 180.980133,248.362793 
	C179.332382,248.874222 177.684601,248.967667 176.036407,248.976242 
	C166.817017,249.024185 166.816986,249.017181 166.634460,239.450394 
	C166.606354,237.189011 166.747864,235.380203 166.753540,233.570969 
	C166.780380,225.008987 166.767151,225.008942 175.541504,224.921524 
	C177.373581,223.771179 178.827911,223.639526 180.672455,224.829193 
z"/>
<path fill="#0D100F" opacity="1.000000" stroke="none" 
	d="
M176.600922,258.003479 
	C177.002121,265.355560 177.000626,272.708710 176.999817,280.530304 
	C174.026855,282.896942 172.199295,281.910156 172.079407,278.577667 
	C171.878616,272.997681 171.944427,267.401428 172.107513,261.818146 
	C172.177322,259.428589 173.431488,257.769287 176.600922,258.003479 
z"/>
<path fill="#0B0D0C" opacity="1.000000" stroke="none" 
	d="
M181.439819,225.094757 
	C179.593292,225.122925 178.205444,225.064865 176.408051,224.925690 
	C175.930984,221.672592 176.831039,218.241501 172.455231,216.732697 
	C170.820602,216.169067 171.115128,213.964462 170.972015,212.306625 
	C170.472580,206.521683 171.628082,200.848923 172.108734,195.140045 
	C172.324722,192.574890 173.566498,190.318878 176.941803,192.667969 
	C178.181824,198.270493 177.761581,203.622650 177.307556,208.892365 
	C176.978226,212.714966 177.920502,214.637466 182.339020,214.473907 
	C190.640182,214.019470 198.521347,214.277740 206.851013,214.384720 
	C208.206284,214.520447 209.112549,214.412033 210.469269,214.477631 
	C212.124313,214.471039 213.327866,214.243683 214.986725,214.478271 
	C219.721664,214.378723 224.002014,214.223404 228.751587,214.449036 
	C233.975525,214.329132 238.789337,213.376831 243.691986,215.826752 
	C244.954102,219.953720 241.202377,221.392731 240.049469,224.469498 
	C239.475037,225.694351 238.622757,226.070541 237.212891,226.371948 
	C232.711777,226.707367 228.652863,227.380539 224.351776,225.445389 
	C219.611801,225.121628 215.254852,225.067123 210.438690,225.096527 
	C205.285904,225.121399 200.592331,225.062378 195.438293,225.089798 
	C190.618073,225.120316 186.258286,225.064423 181.439819,225.094757 
z"/>
<path fill="#323433" opacity="1.000000" stroke="none" 
	d="
M208.341583,215.565277 
	C199.699402,215.936249 191.374863,215.924622 182.589844,215.912964 
	C180.101669,213.979660 180.103561,211.420532 180.231888,208.960678 
	C180.496017,203.897186 179.150940,198.697067 181.742279,193.413330 
	C187.635162,191.030273 193.410873,192.600494 199.535202,192.059601 
	C202.466354,192.166870 204.929382,192.282593 207.707077,192.636978 
	C209.366714,194.326050 209.621704,196.104263 209.488098,197.967438 
	C209.077042,203.699661 210.466660,209.518600 208.341583,215.565277 
z"/>
<path fill="#CBCDCD" opacity="1.000000" stroke="none" 
	d="
M205.250061,182.506378 
	C204.234924,182.957504 203.484161,183.021545 202.365753,183.172089 
	C197.964645,183.202713 193.931198,183.146820 189.441879,182.996887 
	C185.916245,175.648193 186.786575,168.274704 188.650940,160.515091 
	C193.672913,160.107468 198.365662,160.065887 203.519760,160.087067 
	C205.310852,161.384003 205.660141,163.023407 205.641281,164.704086 
	C205.576172,170.509079 206.236969,176.319977 205.250061,182.506378 
z"/>
<path fill="#E3E4E3" opacity="1.000000" stroke="none" 
	d="
M188.539368,160.086761 
	C188.990662,167.425491 189.001160,174.701965 188.998810,182.440643 
	C186.609253,182.955582 184.232498,183.008316 181.420074,182.963257 
	C180.982498,175.608841 180.980591,168.352219 180.979004,160.638565 
	C183.352402,160.129181 185.725479,160.076843 188.539368,160.086761 
z"/>
<path fill="#131616" opacity="1.000000" stroke="none" 
	d="
M181.639221,193.019623 
	C182.065857,200.354782 182.069168,207.675400 182.100906,215.454468 
	C175.143326,216.072983 175.242188,216.082489 175.927383,208.959671 
	C176.417694,203.862656 175.479431,198.701370 176.717163,193.301544 
	C178.405624,192.998795 179.810760,193.001923 181.639221,193.019623 
z"/>
<path fill="#A0A1A1" opacity="1.000000" stroke="none" 
	d="
M280.564728,127.076622 
	C281.014648,134.486313 281.000916,141.812668 280.983398,149.613907 
	C274.957336,150.128586 268.935059,150.168381 262.448608,150.132080 
	C258.920868,142.750793 259.733490,135.336121 261.698914,127.538773 
	C268.059875,127.117111 274.080505,127.055199 280.564728,127.076622 
z"/>
<path fill="#6A6C6C" opacity="1.000000" stroke="none" 
	d="
M245.279053,149.668076 
	C240.618591,150.130890 236.261536,150.203232 231.450745,150.383728 
	C229.929718,150.378891 228.862411,150.265884 227.390213,150.150269 
	C226.042084,149.344925 225.511246,148.290619 225.575790,147.086731 
	C225.919327,140.678635 224.458878,134.191498 226.740479,127.484985 
	C232.757568,127.080910 238.439911,127.046425 244.587067,127.093384 
	C248.032852,134.475128 247.331360,141.863785 245.279053,149.668076 
z"/>
<path fill="#878888" opacity="1.000000" stroke="none" 
	d="
M245.442810,150.111328 
	C244.991608,142.734589 245.007553,135.410629 245.037689,127.630768 
	C250.405258,127.120399 255.758591,127.065956 261.575592,127.095268 
	C262.026520,134.489487 262.013794,141.799927 261.992737,149.583176 
	C256.626282,150.092026 251.268127,150.128067 245.442810,150.111328 
z"/>
<path fill="#424444" opacity="1.000000" stroke="none" 
	d="
M226.691986,127.047745 
	C227.038757,134.472107 227.002274,141.828812 226.975555,149.666595 
	C226.243088,150.995636 225.352371,150.970581 224.175095,150.408203 
	C222.351089,148.449661 222.374634,146.259201 222.519882,144.101364 
	C222.884918,138.678192 221.592331,133.170883 223.662033,127.436783 
	C224.757370,127.029015 225.533051,127.004555 226.691986,127.047745 
z"/>
<path fill="#535554" opacity="1.000000" stroke="none" 
	d="
M223.612488,127.032036 
	C223.990494,134.452774 223.999313,141.852081 223.978806,149.740234 
	C223.221481,150.211884 222.493469,150.194717 221.401520,150.176941 
	C221.022034,142.785599 221.006531,135.394852 221.009125,127.543213 
	C221.765900,127.058411 222.504593,127.034500 223.612488,127.032036 
z"/>
<path fill="#6A6C6C" opacity="1.000000" stroke="none" 
	d="
M279.274261,248.450317 
	C271.583130,248.870636 264.233490,248.937347 256.418060,248.925293 
	C254.245468,247.189972 254.155075,245.003571 254.259949,242.894333 
	C254.541885,237.223404 253.190094,231.447189 255.624649,225.523529 
	C263.303253,225.142166 270.654968,225.127380 278.468872,225.156830 
	C280.145325,226.236633 280.652588,227.654663 280.620941,229.145493 
	C280.486786,235.471588 281.903931,241.885834 279.274261,248.450317 
z"/>
<path fill="#878888" opacity="1.000000" stroke="none" 
	d="
M255.489716,225.114304 
	C255.964188,232.748657 255.976852,240.340347 255.970871,248.389282 
	C249.933029,248.899918 243.913803,248.953323 237.430298,248.926239 
	C235.250458,247.193604 235.153702,245.005722 235.259872,242.894928 
	C235.545227,237.221283 234.175705,231.439545 236.639801,225.516479 
	C237.725113,225.074356 238.482758,224.998566 239.617920,224.864273 
	C245.006241,224.894394 250.017059,224.983032 255.489716,225.114304 
z"/>
<path fill="#6A6C6C" opacity="1.000000" stroke="none" 
	d="
M244.374573,216.145111 
	C239.319702,216.114670 234.645432,216.026230 229.509644,215.898712 
	C225.697632,208.411865 226.888626,201.033264 229.673111,193.292389 
	C235.320496,192.849747 240.680756,192.789291 246.499817,192.816589 
	C250.161392,200.205612 249.191849,207.647461 247.376862,215.477386 
	C246.283157,215.927780 245.519180,216.007446 244.374573,216.145111 
z"/>
<path fill="#878888" opacity="1.000000" stroke="none" 
	d="
M247.507172,215.890198 
	C247.023224,208.518005 246.999329,201.187912 246.967026,193.381073 
	C251.332657,192.843796 255.706680,192.783249 260.533386,192.835785 
	C260.999329,200.267151 261.012543,207.585464 261.033478,215.359894 
	C256.683197,215.854782 252.325211,215.893539 247.507172,215.890198 
z"/>
<path fill="#535554" opacity="1.000000" stroke="none" 
	d="
M279.375977,248.880463 
	C278.941925,241.237366 278.951080,233.670807 278.945648,225.652649 
	C281.313416,225.147629 283.695770,225.094223 286.520874,225.074188 
	C286.974396,232.731827 286.985138,240.356049 286.980591,248.439163 
	C284.583221,248.917694 282.201202,248.937347 279.375977,248.880463 
z"/>
<path fill="#A0A1A1" opacity="1.000000" stroke="none" 
	d="
M236.508499,225.098206 
	C236.977081,232.743332 236.986710,240.336517 236.981171,248.387726 
	C232.938873,248.893097 228.911713,248.940460 224.426178,248.903702 
	C223.971619,241.243134 223.975449,233.666672 223.974030,225.633179 
	C227.995697,225.132858 232.022614,225.089569 236.508499,225.098206 
z"/>
<path fill="#181C1B" opacity="1.000000" stroke="none" 
	d="
M271.669464,331.148254 
	C272.419739,330.543304 271.652740,328.074646 272.943787,329.568665 
	C274.241180,331.070068 274.534485,333.501251 275.067596,335.576447 
	C275.363373,336.727814 276.916962,338.292847 275.331299,339.057434 
	C273.993164,339.702698 271.921692,339.678833 270.508148,339.115173 
	C268.416290,338.281036 270.267395,336.565674 270.400635,335.278992 
	C270.534149,333.989380 271.144348,332.749146 271.669464,331.148254 
z"/>
<path fill="#A0A1A1" opacity="1.000000" stroke="none" 
	d="
M241.299438,182.498505 
	C233.947418,182.935974 226.926331,183.009583 219.443222,182.991699 
	C215.919739,175.646255 216.789429,168.273804 218.645920,160.515015 
	C221.025269,160.082092 223.076080,160.015686 225.562500,159.884705 
	C230.678055,159.905792 235.357956,159.991455 240.498566,160.131317 
	C242.990250,162.111343 242.857407,164.674805 242.747162,167.090775 
	C242.518005,172.112411 243.772385,177.256027 241.299438,182.498505 
z"/>
<path fill="#B9B9B9" opacity="1.000000" stroke="none" 
	d="
M218.512909,160.091522 
	C218.984695,167.424469 218.994934,174.700455 218.993195,182.438293 
	C214.621277,182.958298 210.261337,183.016418 205.443542,182.984009 
	C203.069946,175.689545 204.428513,168.338318 203.992462,160.608551 
	C208.671204,160.111374 213.361267,160.072952 218.512909,160.091522 
z"/>
<path fill="#878888" opacity="1.000000" stroke="none" 
	d="
M241.430359,182.955597 
	C240.969666,175.607468 240.970795,168.352585 240.965607,160.641602 
	C246.314133,160.151627 251.669006,160.117737 257.485901,160.129684 
	C257.965759,167.434662 257.983551,174.693817 258.010315,182.412674 
	C252.643570,182.931198 247.267868,182.990005 241.430359,182.955597 
z"/>
<path fill="#535554" opacity="1.000000" stroke="none" 
	d="
M229.499786,192.856857 
	C229.114532,200.233093 228.757614,207.577072 229.029449,215.403473 
	C224.687393,215.895157 220.326706,215.930710 215.503845,215.956451 
	C212.988174,213.847794 213.101639,211.146179 213.215683,208.566452 
	C213.437149,203.557449 212.251892,198.438446 214.624954,193.196045 
	C219.661148,192.823898 224.350220,192.813721 229.499786,192.856857 
z"/>
<path fill="#323433" opacity="1.000000" stroke="none" 
	d="
M214.742981,192.620346 
	C214.973267,200.229858 214.974472,207.625610 215.008682,215.484009 
	C213.960388,215.976013 212.879074,216.005402 211.393250,216.005646 
	C209.874924,214.837250 209.418091,213.448593 209.522430,211.886353 
	C209.928299,205.809341 208.523026,199.645493 210.681122,193.230515 
	C212.051239,191.849289 213.254456,191.887619 214.742981,192.620346 
z"/>
<path fill="#424444" opacity="1.000000" stroke="none" 
	d="
M210.598755,192.846191 
	C210.984116,200.229218 211.001968,207.636795 211.004272,215.510468 
	C210.247177,215.979599 209.505630,215.982666 208.394012,215.966797 
	C208.014038,208.577850 208.004135,201.207809 208.007996,193.356720 
	C208.758224,192.874023 209.494736,192.872375 210.598755,192.846191 
z"/>
<path fill="#323433" opacity="1.000000" stroke="none" 
	d="
M220.110382,209.287415 
	C220.100327,205.537811 220.100327,202.194290 220.100327,198.850769 
	C222.434479,202.681229 222.180283,206.705475 221.529449,210.510422 
	C221.253632,212.122940 220.351944,210.547226 220.110382,209.287415 
z"/>
<path fill="#323433" opacity="1.000000" stroke="none" 
	d="
M221.490417,213.486023 
	C221.511658,213.477875 221.469177,213.494186 221.490417,213.486023 
z"/>
</svg>