<?xml version="1.0" standalone="no"?>
<!DOCTYPE svg PUBLIC "-//W3C//DTD SVG 20010904//EN"
 "http://www.w3.org/TR/2001/REC-SVG-20010904/DTD/svg10.dtd">
<svg version="1.0" xmlns="http://www.w3.org/2000/svg"
 width="500.000000pt" height="500.000000pt" viewBox="0 0 500.000000 500.000000"
 preserveAspectRatio="xMidYMid meet">

<g transform="translate(0.000000,500.000000) scale(0.100000,-0.100000)"
fill="#000000" stroke="none">
<path d="M2040 2664 c0 -58 5 -114 10 -125 15 -26 60 -26 60 1 0 11 -4 20 -10
20 -6 0 -10 42 -10 105 l0 105 -25 0 -25 0 0 -106z"/>
<path d="M3090 2645 c0 -118 1 -125 20 -125 17 0 20 7 20 51 0 63 13 89 45 89
24 0 25 -2 25 -70 0 -68 1 -70 25 -70 24 0 25 2 25 74 0 54 -4 79 -16 90 -17
18 -69 22 -79 6 -14 -23 -25 -7 -25 35 0 38 -3 45 -20 45 -19 0 -20 -7 -20
-125z"/>
<path d="M1120 2740 c0 -16 6 -20 35 -20 l35 0 0 -100 0 -100 25 0 25 0 0 100
0 100 36 0 c28 0 35 3 32 18 -3 14 -17 17 -96 20 -87 3 -92 2 -92 -18z"/>
<path d="M2685 2735 c-45 -44 -21 -97 49 -110 40 -8 61 -28 52 -50 -7 -20 -55
-19 -85 1 -19 14 -25 14 -32 3 -13 -21 -11 -26 13 -43 31 -22 111 -21 130 2
44 50 25 100 -47 123 -37 12 -50 21 -50 35 0 23 48 32 70 14 16 -14 35 -5 35
15 0 40 -98 48 -135 10z"/>
<path d="M2343 2720 c-3 -11 -9 -20 -14 -20 -5 0 -9 -9 -9 -20 0 -11 5 -20 10
-20 6 0 10 -21 10 -48 0 -63 21 -92 66 -92 27 0 34 4 34 20 0 15 -7 20 -25 20
-23 0 -25 3 -25 50 0 47 2 50 25 50 18 0 25 5 25 20 0 15 -7 20 -25 20 -18 0
-25 5 -25 20 0 14 -7 20 -21 20 -12 0 -23 -8 -26 -20z"/>
<path d="M1340 2610 c0 -83 1 -90 20 -90 17 0 20 7 20 51 0 59 13 89 39 89 16
0 31 18 31 36 0 9 -47 3 -58 -8 -9 -9 -12 -9 -12 0 0 7 -9 12 -20 12 -19 0
-20 -7 -20 -90z"/>
<path d="M1491 2684 c-33 -24 -12 -41 29 -24 22 9 34 10 42 2 15 -15 2 -30
-35 -37 -17 -4 -38 -12 -44 -17 -16 -13 -17 -60 -1 -76 15 -15 53 -16 78 -2
13 7 21 7 25 0 3 -5 17 -10 31 -10 27 0 34 27 9 36 -11 5 -15 22 -15 63 0 31
-5 62 -12 69 -17 17 -80 15 -107 -4z m66 -122 c-19 -18 -50 -8 -45 15 4 22 52
35 56 15 2 -8 -3 -21 -11 -30z"/>
<path d="M1670 2610 c0 -83 1 -90 20 -90 18 0 20 7 20 54 0 73 6 86 41 86 l29
0 0 -70 c0 -68 1 -70 25 -70 24 0 25 2 25 68 0 45 -5 75 -16 90 -16 24 -53 29
-85 12 -13 -7 -19 -7 -19 0 0 5 -9 10 -20 10 -19 0 -20 -7 -20 -90z"/>
<path d="M1886 2684 c-19 -19 -21 -58 -3 -72 6 -6 25 -14 40 -17 33 -9 43 -23
28 -38 -9 -9 -19 -8 -41 5 -28 16 -30 16 -40 -2 -13 -25 13 -40 69 -40 81 0
95 91 16 106 -39 7 -53 20 -36 37 7 7 17 7 35 0 29 -14 52 2 35 24 -16 18 -84
16 -103 -3z"/>
<path d="M2154 2686 c-15 -12 -16 -17 -7 -27 10 -10 18 -10 38 -1 27 13 58 6
52 -12 -2 -6 -20 -15 -41 -19 -21 -5 -44 -19 -53 -33 -14 -22 -14 -26 1 -49
18 -27 63 -34 84 -13 9 9 15 9 24 0 19 -19 48 -15 48 8 0 11 -4 20 -10 20 -5
0 -10 24 -10 54 0 36 -5 60 -16 70 -19 20 -84 21 -110 2z m73 -124 c-19 -18
-50 -8 -45 15 4 22 52 35 56 15 2 -8 -3 -21 -11 -30z"/>
<path d="M2497 2686 c-9 -7 -22 -27 -28 -44 -13 -38 3 -97 31 -112 30 -16 86
-12 111 9 22 18 22 19 3 29 -14 7 -24 7 -38 -3 -18 -14 -45 -10 -58 9 -15 22
-7 26 52 26 54 0 60 2 60 21 0 23 -18 60 -34 71 -18 12 -80 8 -99 -6z m83 -36
c10 -18 8 -20 -30 -20 -45 0 -47 2 -24 24 21 22 41 20 54 -4z"/>
<path d="M2870 2575 l0 -125 25 0 c23 0 25 4 25 47 0 37 3 44 12 35 7 -7 26
-12 43 -12 46 0 69 30 69 90 0 60 -23 90 -69 90 -17 0 -36 -5 -43 -12 -9 -9
-12 -9 -12 0 0 7 -11 12 -25 12 l-25 0 0 -125z m126 60 c3 -14 3 -37 0 -51 -6
-21 -11 -25 -39 -22 -35 3 -45 26 -33 74 5 19 13 24 36 24 23 0 31 -5 36 -25z"/>
<path d="M3315 2675 c-19 -18 -25 -35 -25 -65 0 -55 34 -90 88 -90 45 0 80 28
60 48 -8 8 -15 8 -24 1 -19 -16 -68 -7 -72 14 -3 14 5 17 52 17 l56 0 0 33 c0
43 -26 67 -74 67 -26 0 -44 -7 -61 -25z m83 -17 c20 -20 14 -28 -23 -28 -19 0
-35 4 -35 8 0 12 22 32 35 32 6 0 16 -5 23 -12z"/>
<path d="M3490 2610 c0 -89 0 -90 25 -90 24 0 25 3 25 58 0 60 11 82 42 82 11
0 18 7 18 20 0 23 -29 27 -48 8 -9 -9 -12 -9 -12 0 0 7 -11 12 -25 12 -25 0
-25 -1 -25 -90z"/>
<path d="M3652 2677 c-31 -33 -31 -105 1 -135 31 -29 97 -30 122 -2 15 16 15
20 3 25 -8 3 -26 1 -40 -4 -19 -7 -31 -6 -47 5 -35 25 -24 34 39 34 l60 0 0
30 c0 66 -91 97 -138 47z m88 -22 c18 -21 9 -27 -36 -23 -36 3 -37 4 -20 21
21 21 40 22 56 2z"/>
</g>
</svg>
